<?xml version="1.0" encoding="utf-8"?>
<!-- Generator: Adobe Illustrator 27.5.0, SVG Export Plug-In . SVG Version: 6.00 Build 0)  -->
<svg version="1.1" id="Layer_1" xmlns="http://www.w3.org/2000/svg" xmlns:xlink="http://www.w3.org/1999/xlink" x="0px" y="0px"
	 viewBox="0 0 4000 4000" style="enable-background:new 0 0 4000 4000;" xml:space="preserve">
<path style="fill:#FEFEFE;" d="M0,0h4000v4000H0V0z"/>
<path d="M643.144,791.609c21.035-0.906,42.586,6.371,59.637,18.566c33.988,24.316,38.105,59.496,43.023,97.887l10.016,81.668
	l-115.59,49.316l-64.824,29.406l-16.492-106.738c-3.863-24.25-11.781-53.484-9.66-77.781c1.629-18.699,9.496-38.051,20.449-53.156
	C588.223,805.238,613.031,796.211,643.144,791.609z"/>
<path d="M3691.805,1414.098l93.305,24.379c37.055,8.035,73.844,12.449,111.473,16.371c-6.117,27.836-11.363,56.059-19.965,83.262
	c-22.656,71.625-61.77,134.48-111.406,190.348c-21.309,26.707-49.262,46.512-72.598,71.047l-57.906-33.816L3691.805,1414.098z"/>
<path d="M3622.203,1835.418l48.477,25.949l-12.551,167.027c-11.273,114.18-28.117,228.367-54.918,340.008
	c-29.582,123.219-74.605,248.52-140.137,357.473c-80.574,133.977-196.113,247.645-329.168,329.277l-38.938,20.684
	c18.266-19.941,40.434-37.121,59.988-55.934c44.024-42.352,85.168-86.707,121.609-135.805
	c23.797-32.059,44.527-67.453,64.617-101.941c124.75-214.121,186.867-456.77,235.758-697.91L3622.203,1835.418z"/>
<path d="M561.121,1278.316l312.773,385.133c-85.359-5.293-173.871-26.02-256.988-45.16c-21.82-3.602-44.16-10.762-65.504-16.484
	c-57.336-15.367-113.414-33.434-167.873-57.27c-29.133-12.75-58.372-26.379-84.686-44.379
	c-16.182-11.066-28.565-23.855-41.608-38.426c19.678-16.531,42.785-30.469,64.375-44.465L561.121,1278.316z"/>
<path d="M813.16,1159.652c16.992,15.992,30.699,37.894,45.016,56.406l77.465,99.508l169.762,214.34
	c40.605,51.164,79.871,105.938,124.922,153.188c-12.664,2.707-29.438,0.719-42.688,0.637l-172.488-6.715l-103.891-10.57
	l-324.699-399.348L813.16,1159.652z"/>
<path d="M842.66,1149.645c53.051,6.133,106.344,18.422,158.66,29.008l206.394,41.961l883.258,214.82l242.117,66.933
	c42.754,12.113,88.121,22.602,129.352,39.141l-122.168,24.586c-125.438,26.914-253.949,44.184-381.098,60.723
	c-232.629,30.254-464.238,51.586-698.863,56.75L842.66,1149.645z"/>
<path d="M791.336,999.023c151.602,15.133,301.258,44.188,450.77,72.672l857.746,202.633l447.469,123.559l230.004,70.578
	c-28.07,4.039-56.176,13.301-83.59,20.566l-115.02,28.184c-10.535,2.461-27.305,9.273-37.367,9.266
	c-5.25-0.004-16.441-4.969-21.938-6.527l-103.648-31.043l-262.422-73.871l-555.594-139.668l-589.914-124.816l-137.523-23.207
	c-16.012-1.98-36.734-6.789-52.211-1.27c-20.254,7.227-40.051,17.855-59.777,26.613c-155.25,68.922-307.469,143.273-451.614,233.484
	c-20.396,12.766-41.055,25.48-60.154,40.148c-9.303,7.145-19.392,15.277-24.1,26.317c-2.771,6.496-3.325,16.238-0.553,22.879
	c4.256,10.199,12.776,19.746,20.198,27.906c34.007,37.387,87.664,62.973,133.245,83.09c33.684,14.867,69.282,26.551,104.153,38.371
	c165.719,56.156,343.676,86.398,517.988,99.426c157.836,11.793,317.16,8.598,475.172,1.547
	c422.359-18.852,843.895-76.934,1254.059-180.418c315-79.473,620.074-186.024,922.68-303.41l-93.586,508.617l-108.316,47.172
	c-315.258,140.34-645.387,240.652-982.066,314.656l-213.871,43.746c-184.102,31.996-367.664,52.023-554.203,61.461
	c-275.043,13.914-551.609-1.539-820.137-66.227c-167.199-40.277-328.582-99.465-482.852-175.32l-90.539-48.391
	c-9.482-5.324-23.98-11.434-31.667-18.758c-4.343-4.141-9.245-19.836-12.168-26.195c-24.041-52.297-47.199-105.008-65.758-159.539
	c241.621,135.805,513.933,205.949,788,237.871c271.703,31.648,548.27,28.594,820.504,6.207
	c150.277-12.359,300.219-29.18,448.852-54.992l349.977-76.43c121.965-30.844,241.551-64.781,360.035-107.148
	c84.059-30.058,167.071-63.223,247.242-102.605c62.813-30.852,126.402-66.598,181.422-110.164l-667.84,198.453
	c-225.727,56.699-454.813,107.117-685.793,136.816l-358.895,30.207c-174.707,9.207-348.52,10.07-523.277,0.551l-190.41-13.328
	c-178.379-18.578-355.23-54.172-524.52-113.887c-67.782-23.91-135.944-49.629-197.791-86.734
	c-66.81-40.078-127.061-93.84-146.066-172.23c-9.558-39.422-5.128-76.512,18.202-110.254c18.561-26.848,46.381-45.969,73.084-63.953
	l90.987-57.051l105.041-61.93l261-130.109l84.375-35.699c14.992-6.047,30.949-11.18,45.223-18.719
	c8.098-4.277,11.777-9.133,16.465-16.914L791.336,999.023z"/>
<path d="M3545.746,1836.914l3.625,1.066c-1.262,25.773-9.395,55.008-14.375,80.316l-32.145,157.914
	c-66.793,307.551-147.629,632.703-371.824,866.578c-128.301,133.84-300.403,213.602-486.59,217.27
	c-104.438,2.055-212.984-11.488-315.566-30.555c-214.918-39.945-426.793-100.219-634.875-166.688
	c-233.777-74.676-461.582-157.211-684.383-260.535l-173.211-87.668c-27.035-14.828-54.59-28.934-79.836-46.754
	c-25.258-17.824-47.332-40.359-69.559-61.734c-124.969-123.238-232.859-262.023-321.341-413.586
	c-15.852-27.152-34.315-54.672-46.651-83.555l331.047,145.227c245.238,87.137,505.004,137.266,764.883,149.496
	c124.875,5.875,250.605,1.27,375.215-7.621c224.902-16.05,445.531-51.738,665.652-99.855l406.492-102.496l340.133-115.301
	C3318.348,1935.469,3434.055,1889.996,3545.746,1836.914z"/>
</svg>
