<?xml version="1.0" encoding="utf-8"?>
<!-- Generator: Adobe Illustrator 27.5.0, SVG Export Plug-In . SVG Version: 6.00 Build 0)  -->
<svg version="1.1" id="Layer_1" xmlns="http://www.w3.org/2000/svg" xmlns:xlink="http://www.w3.org/1999/xlink" x="0px" y="0px"
	 viewBox="0 0 2000 2000" style="enable-background:new 0 0 2000 2000;" xml:space="preserve">
<path d="M747.348,1220.074l0.022-0.603h-0.194c-6.605-0.503-14.444-1.379-23.519-2.628c-5.313-0.732-10.525-2.225-15.636-4.48
	c-8.227-3.647-13.332-5.865-15.313-6.655c-1.048-0.416-1.759-0.826-2.132-1.228c-0.919-0.962-0.747-1.658,0.517-2.089l6.741-2.283
	c4.135-1.393,4.02-2.096-0.345-2.111c-51.187-0.1-100.945-1.989-149.275-5.664c-8.155-0.617-24.459-1.472-48.911-2.563
	c-0.4-0.028-0.725-0.334-0.775-0.732l-0.129-0.84c-0.072-0.445,0.115-0.682,0.56-0.711c23.332-1.766,45.616-2.505,66.852-2.218
	c33.447,0.452,67.347,1.486,96.939,1.615c34.402,0.158,70.843,0.445,109.323,0.862c11.027,0.115,24.086-0.251,39.176-1.098
	c13.296-0.732,13.289-1.766-0.022-3.101c-0.689-0.072-9.117-0.79-25.285-2.154c-9.807-0.833-35.091-1.242-75.854-1.228
	c-37.977,0.029-65.172-0.158-81.583-0.56c-20.489-0.488-41.818-1.867-63.987-4.135c-2.9-0.287-3.231-1.393-0.991-3.317
	c0.144-0.129,0.876-0.266,2.197-0.409c7.94-0.905,14.904-1.5,20.891-1.788c24.394-1.192,40.784-1.78,49.169-1.766
	c33.153,0.086,69.766,0.194,109.84,0.323c3.747,0,8.672-0.495,14.774-1.486c0.247-0.037,0.418-0.267,0.381-0.514
	c-0.01-0.071-0.038-0.139-0.08-0.197c-0.129-0.187-0.309-0.287-0.538-0.302c-23.145-1.867-48.99-3.109-77.534-3.726
	c-8.873-0.187-40.246,0.057-94.118,0.732c-23.748,0.302-47.195,0.014-70.341-0.861c-3.403-0.129-5.779-0.661-7.129-1.594
	c-3.144-2.168-2.893-3.446,0.754-3.834c13.741-1.45,28.329-2.225,43.764-2.326c41.179-0.287,63.269-0.424,66.27-0.409
	c7.969,0.029,13.892-0.373,17.768-1.206c2.785-0.589,2.757-0.948-0.086-1.077c-37.59-1.709-74.612-1.464-111.068,0.732
	c-7.452,0.459-14.049,0.639-19.793,0.538c-17.596-0.28-27.869-0.28-42.278-2.778c-0.798-0.131-1.339-0.884-1.208-1.682
	c0.011-0.065,0.026-0.128,0.045-0.191c0.287-0.933,0.998-1.393,2.132-1.378c27.367,0.187,41.567,0.28,42.601,0.28
	c3.891-0.029,7.136-0.359,9.735-0.991c0.638-0.147,1.035-0.783,0.888-1.421c-0.049-0.212-0.155-0.405-0.306-0.561
	c-0.617-0.632-1.594-0.948-2.929-0.948c-7.667,0-28.451,0.151-62.35,0.452c-0.92,0.013-1.97-0.367-2.972-1.077
	c-0.244-0.172-0.646-0.546-1.206-1.12c-0.381-0.409-0.358-1.05,0.051-1.431c0.18-0.167,0.414-0.264,0.66-0.271
	c24.538-0.388,48.796-1.378,72.774-2.972c0.632-0.029,0.933-0.359,0.905-0.991l-0.043-0.862c-0.043-0.718-0.424-1.07-1.141-1.055
	c-25.773,0.502-51.969-0.359-78.589-2.584c-0.722-0.068-1.252-0.71-1.184-1.432c0.004-0.047,0.011-0.094,0.021-0.14l0.28-1.206
	c0.089-0.429,0.454-0.741,0.883-0.754c19.829-0.459,38.394-1.177,55.695-2.154c8.4-0.474,8.478-1.587,0.237-3.338
	c-6.059-1.278-13.418-2.441-22.076-3.489c-20.661-2.484-39.743-3.704-57.246-3.661c-14.387,0.029-35.493,0.33-63.319,0.905
	c-0.226,0.002-0.434-0.123-0.538-0.323l-0.409-0.689c-0.503-0.876-0.251-1.364,0.754-1.464c29.032-2.8,55.25-4.171,78.654-4.114
	c21.509,0.043,46.836,2.024,75.983,5.944c8.155,1.106,22.248,3.755,42.278,7.947c80.937,16.943,165.442,30.741,253.515,41.395
	c45.616,5.514,88.733,9.843,133.208,11.372c74.691,2.556,130.867,4.336,168.529,5.341c6.217,0.158,15.507,0.036,27.869-0.366
	c0.703-0.014,0.811-0.28,0.323-0.797c-0.316-0.344-0.783-0.553-1.4-0.625c-22.973-2.958-46.434-5.384-70.384-7.28
	c-31.645-2.498-70.025-5.269-115.138-8.313c-16.655-1.12-30.978-2.197-42.967-3.231c-74.361-6.447-148.909-14.595-223.643-24.445
	c-28.07-3.704-58.596-8.507-91.576-14.408c-32.148-5.772-62.02-12.499-89.616-20.18c-42.873-11.932-83.17-27.295-120.889-46.09
	c-24.71-12.305-46.736-26.67-66.076-43.096c-7.337-6.217-13.64-12.635-18.91-19.254c-3.503-4.394-3.008-4.911,1.486-1.551
	c31.315,23.361,65.638,41.194,102.97,53.499c19.355,6.375,39.061,12.14,59.12,17.294c13.698,3.518,27.704,6.662,42.019,9.433
	c41.811,8.098,84.993,14.617,129.546,19.556c50.526,5.614,98.605,9.685,144.235,12.212c109.452,6.088,222.831,7.897,340.138,5.427
	c0.014,0,0.122-0.115,0.323-0.345v-0.021c0.187-0.215,0.072-0.323-0.345-0.323c-38.078-0.323-74.045-0.302-110.938-2.025
	c-62.874-2.929-112.941-5.607-150.201-8.033c-21.279-1.393-54.331-4.221-99.157-8.486
	c-115.038-10.927-228.058-30.856-339.061-59.787c-38.142-9.95-70.685-19.62-103.723-34.46c-7.323-3.288-14.222-7.624-20.697-13.008
	c-13.956-11.573-26.95-25.557-38.982-41.955c-14.846-20.245-28.049-41.811-39.607-64.698c-4.508-8.931-10.647-21.867-18.414-38.81
	c-14.947-32.607-27.288-64.095-37.022-94.462c-0.316-1.005,0.022-1.694,1.012-2.068c0.258-0.101,0.905,0.101,1.938,0.603
	c18.307,8.988,34.187,16.562,47.64,22.722c37.733,17.302,73.406,31.229,107.019,41.782c35.177,11.056,70.721,20.913,106.631,29.571
	c32.134,7.754,65.653,13.382,100.557,16.885c111.836,11.242,223.047,14.853,333.633,10.833c11.774-0.431,26.089-1.235,42.945-2.412
	c59.802-4.236,123.925-9.175,192.371-14.818c9.419-0.775,22.427-2.527,39.026-5.255c122.188-20.03,242.947-43.914,362.278-71.654
	c16.239-3.762,29.068-6.971,38.487-9.627c0.244-0.072,0.33-0.258,0.258-0.56v-0.022c-0.072-0.23-0.237-0.323-0.495-0.28
	c-34.991,7.122-65.452,13.597-91.383,19.427c-40.253,9.067-74.519,16.648-112.101,23.26
	c-70.972,12.535-158.055,27.087-261.247,43.656c-3.633,0.574-9.505,1.005-17.617,1.292c-30.698,1.048-62.824,2.47-96.379,4.264
	c-31.559,1.694-65.66,2.692-102.302,2.994c-21.451,0.187-35.809,0.352-43.074,0.495c-77.118,1.493-152.642-0.452-226.572-5.837
	c-49.033-3.561-100.493-10.97-154.379-22.226c-21.925-4.566-40.763-9.606-56.514-15.119
	c-57.318-20.087-119.919-44.116-187.805-72.085c-9.39-3.877-16.253-6.799-20.59-8.766c-12.506-5.715-18.414-15.543-17.725-29.484
	c0.818-16.139,1.378-27.388,1.68-33.749c0.039-0.735,0.659-1.306,1.384-1.274c0.263,0.011,0.516,0.103,0.726,0.262
	c19.628,14.688,40.023,27.324,61.187,37.906c32.292,16.153,66.952,29.937,103.982,41.352c22.715,7.007,46.104,13.662,70.168,19.965
	c15.708,4.121,29.664,7.466,41.868,10.036c74.505,15.679,151.45,25.428,230.836,29.248c15.191,0.732,29.549,1.156,43.074,1.271
	c60.907,0.531,125.225-1.766,192.952-6.892c35.608-2.699,71.568-5.915,107.88-9.649c25.601-2.642,76.292-8.636,152.075-17.984
	c14.387-1.766,28.623-3.661,42.708-5.686c121.8-17.46,243.055-40.404,363.764-68.833c1.378-0.33,1.716-1.106,1.012-2.326
	l-3.037-5.277c-0.828-1.444-2.518-2.17-4.157-1.788c-83.593,19.527-167.739,34.998-252.438,46.413
	c-52.709,7.107-81.282,10.962-85.718,11.566c-14.746,1.967-29.003,3.589-42.773,4.867c-28.113,2.599-58.344,5.865-90.693,9.799
	c-8.916,1.091-23.224,2.391-42.924,3.898c-49.292,3.791-99.028,7.122-149.21,9.993c-6.978,0.402-15.586,0.725-25.823,0.969
	c-11.522,0.258-23.26,0.797-34.481,0.818c-43.39,0.043-89.703,0.158-138.937,0.345c-0.589,0-1.12-0.172-1.594-0.517l-0.625-0.474
	c-0.461-0.337-0.561-0.984-0.223-1.445c0.157-0.215,0.392-0.361,0.654-0.407c68.962-11.07,136.991-23.124,204.087-36.161
	c20.661-4.02,37.726-7.603,51.194-10.747c2.426-0.56,2.513-1.378,0.258-2.455c-6.447-3.044-12.757-5.506-18.931-7.387
	c-1.71-0.523-3.525-0.604-5.277-0.237c-53.096,11.487-116.545,24.71-190.346,39.672c-28.774,5.837-49.88,11.092-85.287,19.513
	c-2.352,0.556-4.784,0.709-7.193,0.452c-13.497-1.422-56.693-5.758-129.59-13.008c-28.817-2.857-62.458-8.055-100.923-15.593
	c-29.922-5.873-56.636-12.685-80.14-20.439c-15.133-4.997-28.408-10.438-39.822-16.325c-11.343-5.858-24.014-13.49-38.013-22.894
	c-13.296-8.931-23.806-16.332-31.531-22.205c-4.135-3.144-8.285-6.713-12.449-10.704c-0.653-0.61-0.678-1.635-0.056-2.288
	c0.291-0.306,0.689-0.489,1.111-0.512c12.133-0.589,23.483-3.001,34.05-7.237c15.313-6.117,20.202-14.451,23.411-29.054
	c0.948-4.336,1.587-8.163,1.917-11.479c2.427-24.38,2.886-50.534,1.378-78.46c-0.072-1.307,0.546-1.989,1.852-2.046l39.198-1.895
	c0.589-0.027,1.119,0.368,1.271,0.948c2.785,10.84,7.079,20.984,12.879,30.432c4.81,7.84,12.42,13.899,22.829,18.177
	c12.176,5.011,23.985,8.974,35.429,11.889c51.919,13.253,103.558,19.685,154.917,19.297c23.088-0.158,49.701-1.493,79.839-4.006
	c6.246-0.517,13.31-0.065,18.651,0.991c30.597,5.973,52.156,9.943,64.676,11.91c77.793,12.233,147.078,21.616,207.856,28.149
	c11.802,1.278,27.74,2.319,47.813,3.123c1.177,0.046,2.093,1.037,2.047,2.214c0,0.009-0.001,0.017-0.001,0.026l-0.151,2.541
	c-0.029,0.718,0.294,1.17,0.969,1.357c18.666,5.011,36.979,8.701,54.942,11.07c11.357,1.493,22.521,1.192,33.49-0.904
	c0.642-0.125,1.061-0.747,0.936-1.39c-0.064-0.327-0.263-0.613-0.548-0.786c-1.795-1.077-3.618-1.788-5.47-2.132
	c-23.289-4.236-48.66-8.019-76.113-11.35c-0.625-0.083-1.064-0.658-0.98-1.282c0.039-0.292,0.19-0.558,0.42-0.742
	c7.61-6.102,15.564-11.616,23.863-16.541c1.192-0.704,3.166-0.962,5.923-0.775c23.059,1.565,46.714,4.236,70.965,8.012
	c4.975,0.775,7.883,2.218,10.316,6.978c1.723,3.36,2.714,7.732,5.621,9.584c3.647,2.312,6.612,3.891,8.895,4.738
	c12.19,4.465,23.612,7.732,34.266,9.799c20.073,3.905,38.659,6.806,55.76,8.701c90.284,10.065,180.906,17.208,271.865,21.43
	c4.537,0.215,13.504,0.144,26.9-0.215c10.697-0.287,19.592-1.113,26.685-2.477c14.732-2.857,28.487-6.583,41.265-11.178
	c4.695-1.694,9.835-4.652,15.421-8.873c8.443-6.404,13.482-15.177,15.119-26.318c2.269-15.435,4.609-28.982,7.021-40.641
	c0.287-1.378,1.134-2.154,2.541-2.326c9.505-1.134,19.42-1.177,29.743-0.129c5.212,0.538,11.372,0.732,16.95,2.735
	c1.196,0.44,1.911,1.661,1.701,2.907c-5.413,31.832-13.281,72.15-23.605,120.953c-8.945,42.285-18.156,82.201-27.632,119.747
	c-10.324,40.921-21.925,80.98-34.804,120.178c-1.464,4.494-1.256,4.573,0.625,0.237c4.437-10.223,8.45-20.927,12.039-32.112
	c14.861-46.32,28.106-94.297,39.736-143.933c14.99-63.951,27.934-124.837,38.832-182.657c0.33-1.723,1.034-2.003,2.111-0.84
	c0.014,0.014,3.03,1.687,9.046,5.018c1.021,0.563,1.547,1.739,1.292,2.886l-10.489,48.157c-0.527,2.442,0.172,4.984,1.874,6.806
	c9.778,10.424,15.528,16.548,17.251,18.371c12.176,12.937,23.016,27.496,32.521,43.677c6.72,11.458,14.732,28.235,12.384,42.019
	c-0.818,4.889-5.104,11.005-7.839,16.153c-0.451,0.845-0.506,1.846-0.151,2.735c14.674,37.13,35.831,91.842,63.47,164.135
	c18.967,49.607,36.42,90.349,52.357,122.224c12.047,24.122,25.636,46.571,40.77,67.347c0.644,0.899,0.438,2.15-0.462,2.795
	c-0.307,0.22-0.669,0.348-1.046,0.371c-3.072,0.172-5.729,1.407-7.969,3.704c-14.76,15.105-28.616,32.241-41.567,51.409
	c-0.144,0.215-0.337,0.294-0.581,0.237l-0.818-0.172c-0.388-0.086-0.503-0.309-0.345-0.668
	c9.721-20.963,20.819-40.655,33.297-59.077c0.691-1.014,0.682-2.357-0.022-3.381c-13.899-20.058-26.405-41.61-37.518-64.655
	c-13.009-26.965-25.945-56.894-38.81-89.789c-28.027-71.705-47.978-123.293-59.852-154.767c-0.991-2.628-1.946-2.613-2.865,0.043
	c-8.198,23.634-17.919,46.054-29.161,67.261c-19.226,36.269-40.504,69.536-63.836,99.804
	c-16.254,21.078-33.433,39.255-51.539,54.532c-4.954,4.164-9.807,7.567-14.559,10.209c-7.38,4.106-8.852,2.613-4.415-4.48
	c0.144-0.23,1.543-1.673,4.2-4.329c47.755-47.913,87.369-102.323,118.842-163.231c14.904-28.817,26.024-54.855,33.361-78.115
	c0.847-2.642,0.696-6.239-0.452-10.79c-3.216-12.779-8.923-24.883-17.122-36.312c-8.758-12.19-18.12-22.765-28.085-31.724
	c-0.158-0.129-0.258-0.093-0.302,0.108l-0.194,0.862c-0.029,0.144,0.007,0.273,0.108,0.388
	c13.798,15.866,24.517,33.375,32.155,52.529c1.745,4.394,2.046,10.101-1.938,13.762c-13.288,12.19-25.629,13.267-42.665,12.901
	c-9.649-0.215-14.904,4.975-18.199,14.667c-13.526,39.815-24.725,72.243-33.598,97.284c-19.75,55.717-40.792,104.714-69.393,152.979
	c-19.793,33.404-45.724,66.873-75.531,88.626c-4.939,3.604-10.833,5.987-17.682,7.15c-2.182,0.359-23.217,3.396-63.104,9.11
	c-1.924,0.273-2.951,0.438-3.08,0.495c-3.532,1.551-3.403,2.427,0.388,2.627l58.151,3.123c3.805,0.201,4.056,1.07,0.754,2.606
	c-0.187,0.072-1.034,0.251-2.541,0.538c-16.368,2.958-34.244,6.246-53.628,9.864c-1.708,0.316-2.254,1.285-1.637,2.908
	c0.301,0.804,1.292,1.422,2.972,1.852c35.393,9.29,69.228,14.832,101.505,16.627c13.741,0.761,42.802,1.867,87.183,3.317
	c7.179,0.23,19.369,1.027,36.57,2.391c0.417,0.043,0.725,0.244,0.926,0.603l0.323,0.538c0.31,0.535,0.127,1.221-0.409,1.53
	c-0.158,0.091-0.335,0.142-0.517,0.15c-16.024,0.89-28.86,1.4-38.509,1.529c-43.879,0.589-84.979,1.443-123.301,2.563
	c-6.533,0.187-13.475,0.79-20.826,1.809c-4.71,0.646-4.717,1.687-0.022,3.123c1.091,0.33,3.266,0.667,6.526,1.012
	c33.742,3.604,61.668,5.937,83.78,7c41.021,1.996,82.294,3.834,123.818,5.514c7.997,0.33,22.349,1.371,43.053,3.123
	c0.676,0.055,1.179,0.647,1.124,1.323c-0.012,0.146-0.05,0.289-0.112,0.422c-0.402,0.847-1.623,1.271-3.661,1.271
	c-46.104-0.101-119.331-0.309-219.68-0.625c-5.169-0.014-18.091,0.244-38.767,0.775c-0.948,0.029-1.472,0.072-1.572,0.129
	c-0.61,0.289-0.833,1.026-0.498,1.646c0.184,0.34,0.51,0.59,0.886,0.68c5.887,1.321,10.496,2.261,13.827,2.821
	c33.282,5.585,67.677,9.369,103.185,11.35c37.001,2.068,74.081,3.74,111.24,5.018c7.193,0.258,14.854,0.689,22.98,1.292
	c7.567,0.574,15.047,1.12,22.442,1.637c0.474,0.029,0.826,0.244,1.055,0.646l0.409,0.711c0.37,0.652,0.142,1.48-0.51,1.85
	c-0.18,0.102-0.382,0.162-0.589,0.175c-19.857,1.149-35.249,1.737-46.176,1.766c-24.61,0.072-73.607-0.057-146.992-0.388
	c-36.585-0.158-73.55,2.728-110.895,8.658c-7.007,1.12-7.007,2.218,0,3.295c45.386,7.021,89.53,11.006,132.432,11.953
	c56.542,1.235,112.015,1.953,166.418,2.154c26.635,0.086,53.8,0.66,81.497,1.723c0.054,0.004,0.5,0.366,1.034,0.84l0.668,0.582
	c0.56,0.503,0.452,0.775-0.323,0.818c-39.7,2.024-67.16,3.08-82.38,3.166c-16.469,0.101-54.338,0.273-113.609,0.517
	c-27.094,0.1-54.741,1.163-82.94,3.188c-6.346,0.445-11.242,0.941-14.688,1.486c-4.638,0.732-4.738,1.867-0.301,3.403
	c22.226,7.667,38.487,8.55,67.648,10.812c59.637,4.652,119.381,4.135,179.427,4.846c12.362,0.151,24.337,1.184,36.527,1.96
	c0.603,0.043,0.89,0.366,0.861,0.969l-0.043,0.797c-0.043,0.732-0.424,1.113-1.141,1.141c-13.052,0.661-25.823,1.105-38.315,1.335
	c-74.117,1.378-150.947,2.879-230.491,4.501c-4.767,0.101-8.407,0.359-10.919,0.775c-4.867,0.833-4.997,2.147-0.388,3.941
	c3.59,1.393,6.935,2.434,10.036,3.123c14.229,3.102,29.205,5.456,44.927,7.064c38.307,3.905,75.488,6.511,111.541,7.818
	c0.499,0.016,0.891,0.434,0.875,0.934c-0.008,0.233-0.105,0.454-0.271,0.617l-0.366,0.388c-0.488,0.488-0.79,0.732-0.905,0.732
	c-33.77,0.172-74.146,0.115-121.125-0.172c-62.659-0.373-125.361,1.206-188.106,4.738c-15.622,0.89-29.757,2.34-42.407,4.351
	c-6.318,1.019-6.325,2.068-0.022,3.144c18.493,3.173,37.195,4.925,56.105,5.255c74.878,1.278,144.486,0.79,208.825-1.464
	c27.037-0.962,47.03-1.113,59.981-0.452c0.307,0.01,0.576,0.227,0.668,0.538c0.1,0.431-0.122,0.697-0.668,0.797
	c-21.882,4.035-48.495,8.285-79.839,12.75c-18.242,2.606-35.946,7-50.893,16.842c-0.511,0.341-0.944,0.789-1.271,1.314
	c-1.938,3.087-1.127,5.284,2.434,6.59c6.231,2.297,10.776,3.69,13.633,4.178c23.282,4.071,59.378,5.298,80.42,8.852
	c13.87,2.34,27.654,5.621,41.351,9.843c0.917,0.28,1.603,1.033,1.788,1.96c0.201,1.005-0.474,1.601-2.025,1.787
	c-20.008,2.52-39.65,3.252-57.289,5.406c-12.736,1.565-28.314,3.152-46.736,4.76c-1.12,0.086-1.558-0.417-1.314-1.508l0.194-0.905
	c0.106-0.464,0.464-0.83,0.926-0.948c5.672-1.292,11.551-2.391,17.639-3.295c21.437-3.216,34.208-5.068,38.315-5.557
	c5.901-0.689,5.98-1.781,0.237-3.274c-13.353-3.475-27.797-4.788-43.333-3.941c-86.307,4.738-154.623,7.682-204.948,8.83
	c-15.78,0.359-34.266-0.014-55.458-1.12c-1.608-0.086-2.821-0.423-3.64-1.012c-1.422-1.019-1.278-1.716,0.431-2.089
	c13.066-2.9,26.556-5.341,40.469-7.323c11.831-1.694,25.285-3.101,40.361-4.221c29.319-2.197,56.018-4.86,80.097-7.99
	c4.078-0.517,8.701-1.587,13.87-3.209c4.379-1.378,4.329-2.556-0.151-3.532c-11.824-2.584-23.885-2.865-49.6-5.04
	c-3.604-0.316-16.426-1.163-38.465-2.542c-24.509-1.529-47.425-3.661-71.698-8.959c-6.231-1.35-16.648-3.503-31.25-6.461
	c-31.473-6.375-60.376-10.352-86.709-11.932c-11.53-0.689-33.067-1.127-64.612-1.314c-19.814-0.115-76.529-2.247-170.144-6.396
	c-57.418-2.541-114.528-7.99-171.329-16.347c-0.405-0.066-0.694-0.42-0.668-0.818l0.043-0.861c0.014-0.258,0.151-0.38,0.409-0.366
	c38.135,1.665,73.923,3.073,107.363,4.221c39.399,1.35,76.644,1.787,111.735,1.314c50.096-0.675,105.69-2.778,166.784-6.31
	c32.65-1.895,75.538-4.659,128.663-8.292c20.274-1.378,39.219-3.345,56.837-5.901c0.244-0.029,0.359-0.172,0.344-0.431v-0.022
	c-0.014-0.259-0.151-0.388-0.409-0.388c-12.305-0.373-24.237-0.431-35.795-0.172c-119.862,2.714-238.862,2.778-357.001,0.194
	c-0.842-0.024-1.543-0.652-1.658-1.486l-0.108-0.732c-0.172-1.106,0.301-1.709,1.421-1.809
	c51.632-4.322,100.428-7.193,146.389-8.615c32.335-1.005,80.944-2.807,145.829-5.406c16.21-0.646,33.002-1.953,50.376-3.92
	c0.331-0.039,0.567-0.339,0.528-0.67c-0.018-0.15-0.091-0.287-0.205-0.385c-0.359-0.287-0.919-0.481-1.68-0.582
	c-16.512-2.039-41.057-3.266-73.636-3.683c-123.15-1.594-239.681-1.314-349.592,0.84c-73.959,1.464-131.743,2.462-173.353,2.994
	c-25.615,0.33-50.347-0.194-74.196-1.572c-1.479-0.072-1.651-0.603-0.517-1.594c0.144-0.129,0.66-0.194,1.551-0.194
	c102.144-0.402,208.373-3.503,318.687-9.304c15.693-0.818,30.03-1.507,43.01-2.068c61.467-2.685,119.087-5.6,172.858-8.744
	c16.943-0.976,42.077-2.979,75.402-6.009c0.359-0.029,0.524-0.223,0.495-0.582l-0.021-0.625c-0.014-0.287-0.165-0.431-0.452-0.431
	c-63.032-1.479-122.088-2.139-177.165-1.981c-12.563,0.029-26.914,0.388-43.053,1.077c-49.622,2.139-99.488,3.18-149.598,3.123
	c-0.124,0-0.248-0.054-0.345-0.151l-0.883-0.754c-0.432-0.391-0.466-1.058-0.075-1.49c0.171-0.189,0.404-0.31,0.657-0.34
	c21.121-2.269,34.991-3.647,41.61-4.135c57.031-4.135,114.427-7.596,172.19-10.381c14.516-0.689,28.874-1.063,43.074-1.12
	c55.537-0.187,92.696,0.187,111.477,1.12c24.854,1.235,49.047,1.852,72.581,1.852c15.636-0.014,30.956-0.754,45.96-2.218
	c0.439-0.04,0.818-0.313,0.991-0.711c0.474-1.034-0.179-1.694-1.96-1.981c-27.697-4.293-52.917-6.899-75.66-7.818
	c-101.01-4.063-200.792-4.817-299.346-2.261c-11.415,0.302-30.073,1.156-55.975,2.563c-25.802,1.407-75.689,5.112-149.662,11.113
	c-0.814,0.065-1.503-0.123-1.809-0.495l-0.775-0.926c-1.019-1.206-0.747-1.924,0.818-2.154l85.094-12.535
	c0.393-0.006,0.706-0.329,0.7-0.722c-0.006-0.392-0.329-0.706-0.722-0.7c-46.118-5.571-93.472-9.62-142.06-12.147
	c-53.671-2.771-91.899-5.047-114.686-6.827c-2.355-0.187-3.618-0.316-3.791-0.388c-4.394-1.766-4.207-2.864,0.56-3.295
	c9.606-0.861,18.58-1.386,26.922-1.572c82.337-1.852,166.397,1.12,250.5,7.236c14.688,1.063,29.032,1.386,43.031,0.969
	c45.659-1.364,79.602-2.391,101.828-3.08c0.086,0,0.151-0.029,0.194-0.086l0.366-0.409c0.258-0.302,0.194-0.459-0.194-0.474
	c-26.577-0.689-54.762-2.57-84.555-5.643c-9.347-0.976-23.512-3.259-42.493-6.849c-22.786-4.307-46.664-7.244-71.633-8.809
	c-8.055-0.503-22.018-0.804-41.89-0.905c-17.89-0.086-31.904-0.007-42.041,0.237c-66.78,1.622-130.501,1.924-191.165,0.904
	c-8.601-0.144-16.684-0.431-24.251-0.861c-1.235-0.072-1.895-0.459-1.981-1.163c-0.095-0.827,0.498-1.575,1.325-1.67
	c0.046-0.005,0.093-0.009,0.14-0.01c66.722-1.953,136.891-4.587,210.505-7.904c8.945-0.416,29.327-0.553,61.144-0.409
	C746.936,1220.915,747.325,1220.545,747.348,1220.074z M431.892,610.829c-11.587-4.451-20.905-7.617-27.955-9.498
	c-33.397-8.916-64.87-14.329-94.419-16.239c-4.925-0.316-9.247,0.065-12.965,1.141c-7.021,2.025-10.101,9.886-11.673,16.347
	c-1.953,7.969-3.087,15.823-3.403,23.562c-0.302,7.129-2.046,17.467,6.957,18.005c7.71,0.445,16.347,0.366,25.909-0.237
	c30.238-1.924,61.116-5.14,92.632-9.649c14.071-2.01,27.259-5.083,39.564-9.218c0.926-0.308,1.427-1.307,1.119-2.233
	c-0.063-0.189-0.157-0.366-0.279-0.524C443.385,617.089,438.224,613.27,431.892,610.829z M659.325,627.994
	c13.367,6.03,27.281,11.372,41.739,16.024c60.692,19.556,123.337,37.367,187.934,53.434c15.464,3.848,29.47,7.064,42.019,9.649
	c46.061,9.462,87.448,16.268,124.162,20.417c43.218,4.867,86.113,7.481,128.685,7.84c15.765,0.129,30.116-0.237,43.053-1.098
	c47.655-3.13,95.087-10.166,142.297-21.106c8.335-1.938,18.027-5.083,26.835-7.452c6.002-1.608,5.98-3.101-0.065-4.48
	c-1.02-0.23-3.41,0.18-7.172,1.228c-69.005,19.053-138.915,25.4-209.73,19.039c-20.489-1.852-49.737-5.269-87.743-10.252
	c-95.223-12.477-183.562-27.525-265.016-45.142c-17.632-3.805-59.4-13.224-125.304-28.257c-3.992-0.905-10.898-2.699-20.719-5.384
	c-11.774-3.216-18.723-4.889-20.848-5.018c-0.157-0.025-0.296,0.086-0.31,0.247C659.134,627.811,659.207,627.938,659.325,627.994z
	 M1409.704,1129.338c1.91-2.427,6.755-9.986,14.538-22.679c31.932-51.991,57.49-105.252,76.672-159.785
	c10.783-30.64,20.36-61.625,28.731-92.955c0.072-0.259-0.021-0.424-0.28-0.495l-0.021-0.022c-0.244-0.072-0.409,0.022-0.495,0.28
	c-16.483,47.784-35.062,94.742-55.738,140.875c-26.965,60.189-45.128,98.877-54.489,116.064c-4.853,8.888-7.961,15.047-9.326,18.479
	C1408.864,1130.178,1409,1130.257,1409.704,1129.338z M855.465,1201.294c-0.097-0.623,0.329-1.207,0.952-1.304
	c0.027-0.004,0.055-0.008,0.082-0.01c21.724-1.895,44.029-2.764,66.916-2.606c24.093,0.172,44.202,0.546,60.326,1.12
	c11.745,0.417,26.089,0.682,43.031,0.797c21.236,0.158,45.53,0.266,72.882,0.323c0.718,0,0.962-0.337,0.732-1.012l-0.215-0.625
	c-0.043-0.144-0.144-0.223-0.302-0.237c-29.592-2.584-55.035-4.149-76.328-4.695c-39.313-0.991-86.551-1.055-141.715-0.194
	c-10.84,0.172-25.141,0.991-42.902,2.455c-40.978,3.389-80.312,5.909-118.003,7.56c-0.703,0.043-1.077,0.417-1.12,1.12l-0.043,0.861
	c-0.014,0.129,0.043,0.201,0.172,0.215c4.379,0.388,8.794,0.661,13.245,0.818c5.772,0.215,10.094,0.524,12.965,0.926
	c33.699,4.58,64.748,10.977,93.149,19.19c15.78,4.552,26.95,7.732,33.512,9.541c7.739,2.125,24.66,4.214,50.763,6.267
	c58.897,4.609,116.631,6.303,173.202,5.083c17.646-0.388,34.84-1.544,51.582-3.468c3.202-0.373,3.31-1.235,0.323-2.584
	c-0.115-0.057-0.926-0.194-2.434-0.409c-13.813-2.053-27.682-3.425-41.61-4.114c-19.053-0.948-28.652-1.422-28.795-1.422
	c-27.065-1.809-60.685-4.035-100.859-6.676c-31.337-2.068-63.686-2.649-95.711-5.061c-1.867-0.144-2.879-0.926-3.037-2.347
	c-0.103-0.931,0.547-1.773,1.464-1.895c5.442-0.675,12.212-1.048,20.31-1.12c10.84-0.1,58.23-0.129,142.167-0.086
	c18.12,0.015,36.19-0.675,54.209-2.068c0.418-0.033,0.744-0.377,0.754-0.797l0.043-0.711c0.014-0.302-0.129-0.467-0.431-0.495
	c-13.999-1.536-23.368-2.383-28.106-2.541c-52.292-1.709-111.527-3.209-177.704-4.501c-6.533-0.129-16.383-1.005-29.549-2.628
	C857.001,1203.677,855.694,1202.787,855.465,1201.294z"/>
</svg>
