<?xml version="1.0" encoding="utf-8"?>
<!-- Generator: Adobe Illustrator 27.5.0, SVG Export Plug-In . SVG Version: 6.00 Build 0)  -->
<svg version="1.1" id="Layer_1" xmlns="http://www.w3.org/2000/svg" xmlns:xlink="http://www.w3.org/1999/xlink" x="0px" y="0px"
	 viewBox="0 0 2000 2000" style="enable-background:new 0 0 2000 2000;" xml:space="preserve">
<path d="M1349.488,1264.031c-0.301,0.026-0.425,0.19-0.373,0.49v0.02c0.039,0.222,0.177,0.34,0.412,0.353
	c18.573,1.256,35.667,2.25,51.284,2.982c9.561,0.445,22.621,1.302,39.179,2.57c28.709,2.223,55.207,3.061,79.496,2.511
	c60.858-1.36,116.608-2.21,167.251-2.55c13.668-0.092,30.455,0.294,50.362,1.157c0.202,0,0.399,0.085,0.549,0.235
	c0.497,0.484,0.53,1.001,0.098,1.55c-0.144,0.17-0.366,0.301-0.667,0.392c-8.122,2.407-15.074,3.956-20.855,4.65
	c-30.723,3.669-62.839,5.317-96.858,9.829c-2.786,0.366-15.708,2.38-38.767,6.042c-15.617,2.472-31.305,4.382-47.066,5.729
	c-0.109,0.002-0.192,0.1-0.186,0.219c0.001,0.019,0.004,0.037,0.01,0.055l0.176,0.49c0,0.026,0.013,0.039,0.039,0.039
	c8.711-0.118,27.46-1.321,56.247-3.61c30.749-2.433,57.268-1.929,79.555,1.511c2.092,0.327,3.44,0.745,4.041,1.256
	c2.263,1.962,1.87,2.982-1.177,3.061c-15.25,0.458-30.612,0.798-46.085,1.02c-11.287,0.157-24.353,0.563-39.198,1.216
	c-25.988,1.125-52.075,2.269-78.26,3.433c-13.786,0.602-26.832,1.524-39.14,2.766c-18.559,1.857-32.829,2.969-42.808,3.335
	c-18.729,0.693-40.362,0.549-64.899-0.432c-0.85-0.039-0.968,0.236-0.353,0.824c0.314,0.288,0.667,0.432,1.06,0.432
	c0.628,0,0.974,0.006,1.04,0.02c36.635,5.179,72.753,6.115,108.355,2.806c8.75-0.811,21.208-2.57,37.374-5.277
	c15.473-2.59,27.924-4.126,37.354-4.61c12.792-0.654,31.063-0.608,54.815,0.137c32.41,1.02,58.072,0.706,94.072,0.942
	c11.13,0.065,23.261,0.942,36.393,2.629c5.219,0.68,2.877,1.883-7.024,3.61c-0.038,0.011-0.069,0.051-0.069,0.089
	c0,0.038,0.031,0.06,0.069,0.049l0,0c22.562-1.504,0.974-0.085-64.762,4.257c-11.941,0.785-24.955,2.014-39.042,3.688
	c-24.72,2.93-46.739,5.297-66.057,7.102c-0.327,0.039-0.497,0.17-0.51,0.392c0,0.078,0.013,0.157,0.039,0.235
	c0.065,0.118,0.19,0.19,0.373,0.216c3.113,0.471,6.526,0.785,10.241,0.942c34.922,1.491,73.433,0.726,103.901,2.864
	c34.137,2.407,64.866,4.395,92.189,5.964c0.438,0.024,0.745,0.432,0.686,0.911c-0.023,0.183-0.098,0.359-0.215,0.501l-0.51,0.628
	c-0.186,0.224-0.403,0.36-0.589,0.373c-22.575,1.36-44.443,2.943-65.605,4.748c-18.965,1.609-40.873,1.661-65.723,0.157
	c-19.776-1.203-49.819-4.179-90.129-8.927c-6.618-0.772-17.108-1.118-31.469-1.04c-8.593,0.052-18.998,1.19-31.214,3.414
	c-24.131,4.375-54.56,8.573-82.497,9.868c-0.144,0.013-0.216,0.085-0.216,0.216v0.569c0,0.196,0.098,0.307,0.294,0.333
	c13.485,1.491,26.832,2.119,40.042,1.883c21.522-0.373,39.61-0.02,60.799-0.863c35.262-1.412,73.204-0.811,113.829,1.805
	c1.426,0.091,2.256,0.837,2.491,2.237c0.039,0.209,0.065,0.392,0.079,0.549c0.13,1.381-0.874,2.606-2.244,2.737
	c-0.102,0.01-0.204,0.013-0.306,0.01c-35.432-1.046-73.852-1.086-115.261-0.118c-0.732,0.013-1.243,0.242-1.53,0.687
	c-0.19,0.303-0.099,0.702,0.204,0.892c0.069,0.044,0.147,0.074,0.227,0.088c68.391,11.248,137.456,14.511,207.195,9.79
	c3.78-0.262,8.554-0.667,14.322-1.216c0.379-0.026,0.556,0.15,0.53,0.53l-0.059,0.922c-0.026,0.275-0.177,0.412-0.451,0.412h-4.395
	c-0.256-0.005-0.476,0.196-0.491,0.449c-0.013,0.214,0.126,0.402,0.334,0.453c2.747,0.889,5.219,1.275,7.416,1.157
	c0.207-0.007,0.653,0.269,1.138,0.706l0.687,0.608c0.209,0.186,0.237,0.506,0.061,0.715c-0.084,0.1-0.205,0.161-0.336,0.168
	c-16.65,1.02-28.506,2.217-35.569,3.59c-17.631,3.401-34.3,6.311-50.008,8.73c-0.746,0.118-1.144,0.549-1.197,1.295l-0.078,1.099
	c-0.052,0.759-0.451,1.184-1.197,1.275c-14.544,1.766-25.668,2.4-33.372,1.903c-13.968-0.889-37.524-2.714-70.667-5.474
	c-9.234-0.772-22.241-2.093-39.022-3.963c-19.305-2.145-41.108-4.035-65.409-5.67c-11.117-0.745-21.881-0.53-32.293,0.647
	c-31.717,3.571-66.926,8.181-105.628,13.831c-6.101,0.902-10.339,1.452-15.303,3.551c-7.978,3.361-13.465,5.199-16.46,5.513
	c-9.561,0.981-20.181,1.066-31.861,0.255c-13.445-0.928-26.374-1.955-38.786-3.08c-7.71-0.706-16.696-2.001-23.758-4.375
	c-14.224-4.826-28.624-9.319-44.378-9.947c-11.039-0.445-21.352-0.458-30.939-0.039c-13.119,0.562-32.057,2.38-56.816,5.454
	c-0.591,0.076-1.188-0.079-1.667-0.432c-2.237-1.648-1.87-3.015,1.099-4.1c11.536-4.212,24.131-7.122,37.786-8.73
	c19.645-2.315,37.622-3.361,53.932-3.139c8.057,0.105,18.912,1.066,32.567,2.884c8.175,1.086,18.998,2.537,32.469,4.355
	c29.703,3.989,60.191,3.054,91.463-2.806c28.539-5.349,48.223-9.155,59.053-11.418c0.327-0.078,0.438-0.275,0.333-0.589
	l-0.216-0.589c-0.17-0.484-0.51-0.7-1.02-0.647c-19.933,2.25-43.089,4.571-69.47,6.965c-30.37,2.76-60.112,2.753-89.226-0.02
	c-22.261-2.132-43.757-4.663-64.487-7.593c-11.34-1.609-28.107-2.583-50.303-2.923c-27.153-0.432-56.404,0.039-87.755,1.412
	c-34.908,1.517-74.879,3.97-119.91,7.357c-34.111,2.564-68.705,2.603-103.784,0.118c-7.9-0.563-18.396-1.301-31.488-2.217
	c-0.17-0.013-0.32,0.104-0.451,0.353c-0.118,0.249-0.007,0.406,0.333,0.471c37.511,7.351,74.689,11.484,111.533,12.399
	c25.014,0.608,57.365,0.745,89.344-0.471c26.996-1.033,55.279-0.824,84.851,0.628c0.288,0.026,0.478,0.17,0.569,0.432l0.314,0.922
	c0.12,0.302-0.037,0.645-0.351,0.766c-0.051,0.02-0.105,0.033-0.159,0.038c-7.154,0.628-14.479,1.674-21.973,3.139
	c-25.426,4.957-48.007,9.528-67.744,13.714c-35.078,7.468-69.712,9.927-103.901,7.377c-25.426-1.903-40.101-3.688-60.25-2.943
	c-6.88,0.249-19.782,0.484-38.708,0.706c-42.18,0.49-85.224,3.257-125.678,7.573c-4.918,0.523-10.019,1.53-15.303,3.021
	c-0.379,0.118-0.706,0.32-0.981,0.608c-0.602,0.654-0.445,1.334,0.471,2.04c0.253,0.202,0.566,0.306,0.883,0.294
	c8.776-0.183,17.238-0.504,25.387-0.961c58.595-3.309,97.591-5.206,116.987-5.69c6.566-0.17,22.889-0.052,48.969,0.353
	c11.575,0.17,24.628,0.916,39.159,2.237c25.347,2.302,59.406,3.603,102.175,3.904c0.013,0,2.322,0.177,6.925,0.53
	c0.235,0.026,0.347,0.163,0.334,0.412l-0.039,0.549c0,0.026-0.013,0.039-0.039,0.039c-14.937,0.994-28.676,2.093-41.219,3.296
	c-26.158,2.498-47.262,5.245-63.31,8.24c-13.262,2.472-23.517,3.715-30.762,3.728c-14.662,0.039-25.099-0.32-31.312-1.079
	c-30.919-3.767-62.12-4.12-93.602-1.059c-14.243,1.386-38.047,3.734-71.413,7.043c-24.772,2.446-50.178,3.754-76.219,3.924
	c-0.732,0-1.275,0.17-1.628,0.51c-0.589,0.562-0.484,0.922,0.314,1.079c38.401,7.638,81.876,12.079,130.426,13.321
	c35.981,0.916,56.993,1.328,63.035,1.236c17.932-0.275,38.394-2.786,57.464-3.826c16.506-0.902,32.28,0.02,47.321,2.766
	c5.114,0.929,11.902,2.74,20.364,5.434c10.895,3.466,17.696,5.389,20.404,5.768c42.22,5.905,85.558,4.552,128.111,0.098
	c3.518-0.366,8.979-0.752,16.382-1.157c5.506-0.301,11.117-0.418,16.833-0.353c0.52,0.007,0.936,0.435,0.928,0.955
	c-0.003,0.184-0.059,0.364-0.163,0.516l-0.49,0.726c-0.091,0.125-0.181,0.215-0.236,0.235c-40.546,7.246-80.705,10.45-120.479,9.613
	c-17.801-0.379-38.231-1.288-61.289-2.727c-8.279-0.523-40.33-0.687-96.152-0.49c-8.554,0.026-25.93-1.864-52.127-5.67
	c-4.473-0.654-12.602-1.242-24.386-1.766c-19.37-0.85-40.291-0.922-62.761-0.216c-11.968,0.353-22.052,0.255-34.333,0.216
	c-5.258-0.013-9.796-0.157-13.615-0.432c-42.73-2.995-81.157-3.486-115.28-1.471c-34.477,2.027-57.235,3.296-68.274,3.806
	c-22.542,1.04-40.768-2.001-67.214-6.278c-1.256-0.209-1.295-0.595-0.118-1.158c0.405-0.196,1.138-0.327,2.197-0.392
	c24.837-1.583,48.36-2.766,70.569-3.551c8.331-0.288,21.391-0.922,39.179-1.903c16.65-0.929,32.757-1.406,48.321-1.432
	c0.433-0.025,0.763-0.396,0.738-0.828c-0.016-0.285-0.187-0.539-0.444-0.663c-0.249-0.105-0.608-0.183-1.079-0.235
	c-35.288-4.538-75.552-8.443-120.793-11.713c-12.615-0.922-28.761-2.864-42.691-4.12c-0.235-0.026-0.327-0.157-0.275-0.392
	l0.118-0.53c0.144-0.641,0.504-0.981,1.079-1.02c51.781-3.1,103.529-6.906,155.244-11.418c15.368-1.334,47.223-1.596,95.563-0.785
	c0.078,0,0.137-0.039,0.177-0.118l0.196-0.451c0.222-0.549,0.039-0.857-0.549-0.922c-34.542-3.348-72.72-7.037-114.535-11.065
	c-13.262-1.269-27.237-1.936-41.925-2.001c-0.492-0.001-0.918-0.353-1.02-0.844c-0.301-1.491,0.353-2.505,1.962-3.041
	c15.754-5.238,30.331-4.297,52.775-3.983c18.775,0.275,37.237,1.197,55.973-0.392c0.269-0.032,0.464-0.267,0.435-0.526
	c-0.004-0.035-0.012-0.069-0.023-0.102c-0.078-0.209-0.222-0.327-0.432-0.353c-59.17-6.396-117.419-14.649-174.745-24.759
	c-0.118-0.013-0.177-0.078-0.177-0.196l0.059-0.608c0-0.144,0.072-0.216,0.216-0.216c20.149,0.628,40.945,2.649,62.035,3.237
	c22.915,0.641,38.368,1.125,46.359,1.452c14.282,0.589,32.155,0.602,53.618,0.039c3.021-0.078,3.146-0.726,0.373-1.942
	c-0.17-0.078-1.112-0.196-2.825-0.353c-30.592-2.891-80.398-7.272-149.417-13.145c-7.547-0.641-13.929-1.753-19.148-3.335
	c-4.198-1.282-8.214-3.27-12.046-5.964c-2.04-1.439-1.818-2.021,0.667-1.746c14.923,1.674,30.108,2.76,45.555,3.257
	c24.197,0.798,64.866,0.889,122.01,0.275c12.739-0.131,45.869,0.327,99.389,1.373c1.295,0.026,4.166-0.098,8.613-0.373
	c0.259-0.019,0.461-0.184,0.451-0.368c0-0.002,0-0.003,0-0.005c-0.013-0.066-0.046-0.131-0.098-0.196
	c-0.118-0.17-0.229-0.262-0.334-0.275c-18.559-1.988-43.528-4.977-74.905-8.966c-8.148-1.033-15.865-1.831-23.15-2.394
	c-36.923-2.904-75.748-3.59-124.737-5.258c-27.336-0.942-53.919-3.544-79.751-7.808c-0.562-0.1-0.939-0.634-0.844-1.197
	c0.157-0.824,0.876-1.216,2.158-1.177c53.036,1.491,110.068,2.269,171.096,2.335c6.579,0.013,11.967-0.163,16.166-0.53
	c4.787-0.419,4.787-0.902,0-1.452c-61.42-6.984-119.152-13.138-173.195-18.461c-0.32-0.021-0.57-0.287-0.569-0.608v-0.589
	c0-0.196,0.098-0.294,0.294-0.294c28.173,0.458,58.549,1.06,91.13,1.805c15.525,0.353,28.598,0.392,39.218,0.118
	c27.676-0.719,55.129-2.727,82.36-6.023c0.164-0.012,0.318-0.082,0.432-0.196c0.863-0.798,0.706-1.203-0.471-1.216
	c-47.151-0.589-96.204-3.263-147.161-8.024c-0.288-0.026-0.432-0.183-0.432-0.471v-0.745c0-0.34,0.177-0.517,0.53-0.53
	c12.582-0.248,38.571-0.935,77.965-2.06c15.682-0.458,29.893-2.067,42.632-4.826c3.335-0.726,8.672-3.002,11.85-5.277
	c3.322-2.38,2.976-3.185-1.04-2.413c-3.715,0.706-6.782,1.118-9.201,1.236c-20.05,1.079-40.788,0.02-64.193-2.394
	c-9.234-0.942-18.344-1.602-27.329-1.981c-20.744-0.863-34.752-1.557-42.024-2.08c-0.144,0-0.216-0.072-0.216-0.216
	c0-0.039,0-0.078,0-0.118c0-0.052,0.033-0.085,0.098-0.098c20.234-0.902,32.875-1.328,37.923-1.275
	c27.244,0.275,52.258,0.065,75.042-0.628c5.245-0.157,11.359-0.608,18.344-1.354c0.693-0.078,0.974-0.464,0.844-1.157
	c-0.235-1.229-1.079-2.067-2.531-2.511c-9.26-2.825-19.357-4.65-30.292-5.474c-20.508-1.557-35.405-2.629-44.692-3.218
	c-0.209-0.013-0.307-0.124-0.294-0.333c0-0.039,0-0.072,0-0.098c0-0.078,0.033-0.124,0.098-0.137
	c18.141-1.543,36.334-2.151,54.58-1.824c1.936,0.026,2.217-0.634,0.844-1.982c-27.898-27.525-50.989-60.289-71.452-92.365
	c-27.846-43.619-52.199-86.892-73.061-129.818c-19.619-40.363-36.936-79.6-51.951-117.713c-0.955-2.407-2.799-5.022-5.533-7.848
	c-8.462-8.724-16.833-17.539-25.112-26.446c-20.05-21.502-34.588-52.52-22.836-82.046c2.158-5.441,4.591-10.699,7.298-15.773
	c0.262-0.51,0.288-1.033,0.078-1.57c-9.666-24.798-18.586-49.426-26.76-73.885c-0.257-0.76,0.16-1.585,0.93-1.843
	c0.08-0.027,0.163-0.047,0.247-0.06c12.464-1.936,23.183-7.102,32.155-15.499c2.132-1.988,4.198-1.929,6.2,0.177
	c1.059,1.125,2.125,2.995,3.198,5.611c6.16,15.107,10.764,26.93,13.812,35.471c0.499,1.421,1.718,2.468,3.198,2.747
	c42.625,8.161,82.824,13.877,120.597,17.147c53.939,4.682,115.359,8.142,184.26,10.378c102.79,3.348,201.741,1.851,296.853-4.493
	c57.235-3.806,110.892-8.541,160.973-14.204c82.713-9.352,162.261-20.233,238.643-32.646c63.33-10.293,136.75-23.68,220.261-40.16
	c3.702-0.732,9.823-2.067,18.363-4.002c6.409-1.465,12.209-2.178,17.402-2.138c17.526,0.131,35.353,0.072,53.481-0.177
	c1.046-0.013,1.583-0.543,1.609-1.589c0.667-33.731,1.798-72.76,3.394-117.085c0.353-9.574,1.347-15.976,2.982-19.207
	c3.453-6.788,9.247-10.902,17.382-12.34c10.738-1.883,21.332-2.407,31.783-1.569c9.888,0.785,17.186,3.067,21.895,6.847
	c6.605,5.31,9.868,13.086,9.79,23.327c-0.196,29.049-1.047,69.215-2.551,120.499c-0.022,0.791,0.602,1.449,1.392,1.471
	c0.013,0,0.027,0.001,0.04,0.001c54.841,0.039,102.129,0.02,141.864-0.059c2.158-0.013,3.643,1.158,4.454,3.512
	c0.301,0.863,0.909,1.328,1.824,1.393l49.302,3.414c0.823,0.052,1.456,0.755,1.432,1.589c-0.288,7.534-0.791,18.193-1.511,31.979
	c-0.392,7.632-9.064,12.948-15.715,17.225c-2.393,1.556-3.976,3.813-4.748,6.769c-15.25,59.131-32.94,123.932-53.069,194.403
	c-6.958,24.406-13.89,47.052-20.796,67.94c-2.668,8.096-5.65,14.59-8.946,19.482c-3.597,5.336-8.214,10.888-13.851,16.656
	c-40.559,41.5-85.466,77.344-134.723,107.531c-17.971,11.013-35.419,20.528-52.343,28.545c-4.198,1.988-3.989,3.237,0.628,3.747
	c0.235,0.026,1.497,0.033,3.786,0.02c32.397-0.249,64.814-0.837,97.251-1.766c0.639-0.022,1.174,0.47,1.196,1.098
	c0,0.013,0.001,0.027,0.001,0.04v0.804c0.003,0.37-0.272,0.687-0.647,0.745c-26.146,4.12-51.107,8.528-74.885,13.223
	c-36.138,7.141-71.883,11.183-107.237,12.124c-0.274,0.01-0.491,0.236-0.49,0.51v0.726c0,0.144,0.079,0.229,0.235,0.255
	c25.465,2.956,51.042,4.336,76.729,4.14c6.814-0.052,14.197-0.615,22.15-1.687c5.572-0.759,12.798-2.282,21.679-4.571
	c7.769-2.014,22.555-5.99,44.358-11.928c3.204-0.876,5.977-1.432,8.318-1.668c2.72-0.275,2.858,0.196,0.412,1.413
	c-19.331,9.6-37.472,16.055-54.423,19.364c-0.468,0.09-0.774,0.543-0.684,1.011c0.036,0.186,0.131,0.354,0.272,0.48
	c0.34,0.314,0.988,0.471,1.942,0.471c19.462-0.222,44.646-0.17,75.552,0.157c0.994,0.013,1.334,0.582,1.02,1.707l-0.118,0.49
	c-0.154,0.57-0.709,1.009-1.412,1.118c-8.619,1.386-17.709,2.374-27.27,2.962c-45.346,2.76-85.185,4.264-119.518,4.512
	c-0.275,0-0.418,0.137-0.432,0.412l-0.039,0.549c0,0.013,0.006,0.02,0.02,0.02c7.965,0.255,16.519,1.157,23.837,1.314
	c41.566,0.85,83.393,0.098,125.482-2.256c13.825-0.772,27.218,0.052,40.179,2.472c0.654,0.118,1.105,0.49,1.354,1.118
	c0.078,0.196,0.118,0.392,0.118,0.589c0,0.693-0.327,1.131-0.981,1.315c-2.877,0.785-4.774,1.203-5.689,1.255
	c-25.112,1.452-40.238,2.354-57.993,5.356c-4.538,0.772-9.842,1.896-15.911,3.374c-20.482,4.944-41.075,9.26-61.78,12.948
	c-0.222,0.039-0.373,0.17-0.451,0.392l-0.177,0.53c-0.235,0.719,0.026,1.072,0.785,1.059c34.267-0.353,60.151-0.346,77.651,0.02
	c19.593,0.406,43.142,1.602,70.647,3.59c14.466,1.046,30.475,1.556,48.027,1.53c3.309,0,3.355,0.432,0.137,1.295
	c-1.975,0.523-4.761,0.929-8.358,1.216c-14.296,1.164-29.311,1.995-45.045,2.492c-8.109,0.249-19.521-0.222-34.235-1.413
	c-30.187-2.459-60.903-2.171-92.15,0.863c-0.157,0.013-0.255,0.072-0.294,0.177c-0.052,0.157,0.033,0.235,0.255,0.235
	c22.993,0.078,37.557,0.105,43.691,0.078c16.82-0.078,36.681,0.32,59.582,1.197c0.013,0,0.02,0.007,0.02,0.02v0.53
	c0,0.235-0.111,0.36-0.333,0.373c-19.854,1.648-38.728,1.55-60.642,2.884c-51.088,3.126-81.529,4.813-91.326,5.062
	c-13.184,0.34-32.24-0.549-57.169-2.668c-27.793-2.354-51.67-3.525-71.628-3.512
	C1369.029,1262.736,1359.219,1263.168,1349.488,1264.031z M1565.57,667.324c0,0.542,0.439,0.981,0.981,0.981h41.18
	c0.589,0,1.068-0.471,1.079-1.059c0.301-21.842,0.739-58.346,1.314-109.512c0.105-9.744-0.327-16.127-1.295-19.148
	c-1.824-5.689-14.694-6.553-19.776-5.611c-3.924,0.732-9.744,1.622-17.461,2.668c-1.761,0.241-3.222,1.481-3.747,3.178
	c-1.125,3.61-1.687,7.298-1.687,11.065C1566.146,583.329,1565.95,622.475,1565.57,667.324z M1767.291,682.352
	c3.231,0.772,6.494,0.916,9.79,0.432c0.222-0.026,0.32-0.144,0.294-0.353v-0.02c-0.013-0.196-0.144-0.294-0.392-0.294l-8.691-0.157
	c-0.615-0.013-1.158-0.203-1.628-0.569c-0.994-0.759-1.733-1.269-2.217-1.53c-0.536-0.288-1.092-0.327-1.668-0.118l-112.043,39.355
	c-2.524,0.889-2.544,1.825-0.059,2.805l23.484,9.319c0.602,0.235,1.216,0.268,1.844,0.098c36.7-10.359,62.172-17.565,76.415-21.62
	c21.895-6.226,43.227-13.609,63.997-22.15c1.949-0.811,1.916-1.543-0.098-2.197c-0.065-0.026-0.333-0.144-0.804-0.353
	c-0.366-0.17-0.647-0.262-0.844-0.275c-13.511-0.811-24.53-1.478-33.058-2.001c-0.745-0.039-0.83,0.177-0.255,0.647
	c2.354,1.949,2.465,4.532,0.333,7.749c-0.366,0.549-0.883,0.844-1.55,0.883c-6.997,0.275-12.798,0.19-17.402-0.255
	c-2.048-0.205-3.542-2.041-3.335-4.1c0.288-2.864,1.19-4.656,2.707-5.376C1763.158,681.763,1764.885,681.79,1767.291,682.352z
	 M1778.16,682.842c0.314,0.078,0.569,0.065,0.765-0.039c0.152-0.104,0.19-0.312,0.086-0.464c-0.06-0.087-0.157-0.141-0.262-0.144
	c-0.353,0-0.589,0.059-0.706,0.177c-0.113,0.101-0.122,0.275-0.021,0.388C1778.058,682.8,1778.107,682.829,1778.16,682.842z
	 M1397.77,694.28v-0.02c0.026-0.262-0.131-0.36-0.471-0.294c-128.7,24.864-258.851,44.927-390.454,60.191
	c-100.082,11.601-204.35,18.736-312.803,21.404c-25.688,0.641-53.815,0.778-84.381,0.412c-73.989-0.889-148.534-3.956-223.635-9.201
	c-1.635-0.118-4.212-0.072-7.73,0.137c-0.018-0.012-0.033-0.008-0.033,0.008c0,0.016,0.015,0.039,0.033,0.051l0,0
	c1.857,0.589,5.86,1.354,12.007,2.295c64.337,9.822,125.809,17.297,184.417,22.424c94.066,8.24,187.334,9.476,279.804,3.708
	c73.361-4.578,143.159-12.216,209.392-22.915c75.323-12.151,150.633-28.179,225.931-48.086
	c48.38-12.791,84.256-22.653,107.629-29.585C1397.646,694.758,1397.744,694.581,1397.77,694.28z M222.366,767.733
	c7.481,3.178,14.596,5.918,21.345,8.22c7.664,2.616,14.93,4.885,21.797,6.808c42.377,11.863,85.329,21.908,128.857,30.135
	c71.962,13.615,145.873,24.89,221.732,33.823c17.539,2.067,36.661,3.976,57.365,5.729c89.828,7.573,180.722,11.229,272.682,10.967
	c57.287-0.157,113.534-2.152,168.742-5.984c117.608-8.148,232.791-23.497,345.547-46.045c26.734-5.336,60.982-13.066,102.744-23.189
	c49.858-12.072,101.75-26.865,155.676-44.378c29.023-9.417,54.226-18.631,75.611-27.643c6.003-2.537,10.313-4.695,12.929-6.474
	c3.767-2.55,7.488-5.657,11.163-9.319c0.395-0.4,0.4-1.043,0.01-1.436c-0.137-0.138-0.31-0.232-0.5-0.271
	c-0.484-0.105-1-0.065-1.55,0.118c-42.874,13.943-79.568,24.864-110.081,32.763c-99.991,25.871-203.035,47.079-309.134,63.624
	c-46.235,7.207-77.383,11.811-93.444,13.812c-75.977,9.495-146.808,16.12-212.492,19.874c-65.579,3.741-128.843,5.107-189.793,4.1
	c-143.872-2.394-288.835-14.93-434.891-37.609c-15.983-2.485-47.863-7.704-95.642-15.656c-27.571-4.591-74.238-14.237-140-28.938
	c-3.374-0.759-6.265-1.805-8.672-3.139c-0.654-0.353-1.092-0.883-1.314-1.589c-3.296-10.424-8.103-23.327-14.42-38.708
	c-0.123-0.301-0.467-0.444-0.768-0.321c-0.006,0.002-0.011,0.005-0.017,0.007l-11.575,5.493c-0.183,0.092-0.242,0.235-0.177,0.432
	c28.735,79.81,54.351,146.429,76.847,199.857c9.836,23.372,19.253,44.992,28.251,64.86c19.985,44.116,40.788,84.969,62.408,122.559
	c9.823,17.068,22.686,37.027,38.59,59.877c27.27,39.185,58.052,74.65,92.346,106.393c0.039,0.026,0.078,0.039,0.118,0.039
	l0.569-0.059c0.108-0.002,0.195-0.091,0.193-0.199c-0.001-0.05-0.021-0.099-0.056-0.135c-0.994-1.125-4.146-4.414-9.456-9.868
	c-25.897-26.656-50.813-56.973-74.748-90.953c-34.686-49.243-65.37-105.314-91.228-160.933
	c-19.396-41.71-38.852-87.114-58.366-136.214c-10.006-25.177-22.706-58.366-38.1-99.566c-0.124-0.358,0.065-0.749,0.423-0.874
	C222.043,767.669,222.213,767.672,222.366,767.733z M1767.782,814.563c-9.352,4.028-18.886,8.501-28.604,13.419
	c-11.588,5.873-32.94,14.067-64.055,24.582c-31.037,10.476-62.944,19.9-95.72,28.271c-154.204,39.355-310.468,61.283-468.792,65.782
	c-51.493,1.465-104.13,0.785-157.912-2.04c-90.26-4.735-181.016-13.249-272.27-25.544c-21.241-2.864-34.209-4.617-38.904-5.258
	c-90.377-12.268-178.773-27.669-265.188-46.202c-0.262-0.052-3.741-0.883-10.437-2.492c-3.558-0.85-7.089-1.524-10.594-2.021
	c-0.048-0.016-0.091,0.01-0.096,0.059c-0.005,0.049,0.029,0.102,0.077,0.118c41.919,10.699,84.544,20.175,127.876,28.428
	c60.727,11.562,117.321,21.005,169.781,28.33c53.219,7.429,97.996,13.184,134.33,17.265c61.669,6.932,125.999,11.928,192.991,14.989
	c55.482,2.537,110.82,2.485,166.015-0.157c94.72-4.525,187.654-14.95,278.803-31.272c51.82-9.273,103.882-20.953,156.186-35.039
	c45.15-12.151,88.841-26.649,131.073-43.495c14.453-5.768,28.977-12.497,43.573-20.188c6.932-3.649,10.96-6.062,12.085-7.239
	c0.076-0.067,0.075-0.179-0.002-0.251C1767.939,814.555,1767.855,814.538,1767.782,814.563z M696.691,1151.321
	c0.065,0.183,0.196,0.294,0.392,0.333c106.269,22.771,210.405,37.465,312.41,44.083c79.979,5.193,161.699,3.701,245.157-4.473
	c87.918-8.606,172.201-24.994,252.848-49.165c29.951-8.985,58.974-19.455,87.068-31.41c0.71-0.291,1.139-0.962,0.958-1.498
	c-0.023-0.067-0.054-0.13-0.095-0.189l-0.412-0.608c-0.798-1.177-1.583-1.615-2.354-1.314
	c-27.427,11.026-52.258,19.861-74.493,26.505c-60.374,18.036-121.67,31.776-183.887,41.219
	c-122.003,18.52-245.824,22.673-371.463,12.458c-90.796-7.377-179.499-19.71-266.11-37.001c-0.275-0.052-0.366,0.052-0.275,0.314
	L696.691,1151.321z M1374.11,1223.616c-2.629-1.491-2.4-2.138,0.687-1.942l22.581,1.393c0.262,0.013,0.445-0.026,0.549-0.118
	l0.02-0.02c0.314-0.288,0.19-0.458-0.373-0.51c-6.461-0.549-12.602-1.118-18.422-1.707c-1.962-0.196-4.12,1.04-6.18,0.902
	c-4.447-0.288-8.868-0.177-13.262,0.333c-0.235,0.026-0.347,0.157-0.333,0.392v0.02c0.013,0.249,0.137,0.379,0.373,0.392
	c3.898,0.196,7.815,0.876,11.752,2.04c5.65,1.661,9.417,2.649,11.3,2.963c37.877,6.304,76.069,7.272,114.574,2.903
	c0.301-0.026,0.438-0.183,0.412-0.471v-0.02c-0.026-0.235-0.151-0.353-0.373-0.353c-12.883,0.092-25.773,0.144-38.669,0.157
	c-26.564,0.039-53.873-1.87-81.928-5.729C1375.405,1224.048,1374.502,1223.839,1374.11,1223.616z M1282.555,1234.012
	c0.024-0.921-18.036-2.14-40.338-2.724c-22.301-0.584-40.4-0.311-40.425,0.609c-0.025,0.921,18.034,2.141,40.336,2.725
	c0.001,0,0.001,0,0.002,0C1264.432,1235.206,1282.53,1234.933,1282.555,1234.012L1282.555,1234.012z M1215.884,1259.774
	c-16.977,1.282-42.148,2.877-75.513,4.787c-1.426,0.078-2.276,0.17-2.55,0.275c-2.341,0.916-2.25,1.393,0.275,1.432
	c21.018,0.379,42.05-0.19,63.094-1.707c1.439-0.105,6.435-0.477,14.989-1.118c8.541-0.654,13.531-1.033,14.969-1.138
	c21.031-1.661,41.912-4.251,62.643-7.769c2.485-0.419,2.505-0.909,0.059-1.471c-0.288-0.052-1.144-0.013-2.57,0.118
	C1258.006,1256.295,1232.874,1258.492,1215.884,1259.774z M886.209,1294.97c33.646-4.375,67.528-8.652,101.116-10.418
	c17.121-0.915,52.592-0.726,106.413,0.569c21.45,0.51,35.255,1.504,41.415,2.982c23.346,5.585,48.557,7.468,75.631,5.65
	c42.978-2.877,81.327-6.755,115.045-11.634c0.262-0.039,0.366-0.19,0.314-0.451v-0.02c-0.052-0.209-0.19-0.307-0.412-0.294
	c-51.911,2.688-104.431,5.984-155.911,5.062c-9.182-0.17-15.25-0.497-18.206-0.981c-27.414-4.434-49.603-7.671-66.567-9.711
	c-22.352-2.694-37.557-4.074-45.614-4.14c-16.728-0.131-31.796,0.602-45.202,2.197c-35.837,4.277-71.955,10.764-108.355,19.462
	c-0.405,0.104-0.543,0.353-0.412,0.745l0.235,0.667C885.782,1294.875,885.996,1295.007,886.209,1294.97z M830.864,1301.915
	c2.524,0.17,6.481,0.399,11.869,0.687c0.275,0.013,0.464-0.111,0.569-0.373l0.235-0.608c0.118-0.288,0.026-0.464-0.275-0.53
	c-3.597-0.759-5.768-1.19-6.513-1.295c-28.343-3.675-58.333-4.499-89.972-2.472c-0.065-0.003-0.119,0.057-0.119,0.132
	c0,0.008,0,0.017,0.002,0.025l0.02,0.49c0.02,0.27,0.24,0.481,0.51,0.49C797.022,1300.333,824.913,1301.483,830.864,1301.915z
	 M1529.315,1300.816c0.275,0,0.471-0.111,0.589-0.333c-0.235-0.144-0.451-0.19-0.647-0.137c-0.13,0.016-0.222,0.135-0.206,0.265
	C1529.066,1300.74,1529.185,1300.833,1529.315,1300.816z M753.86,1345.724c11.706,3.178,22.222,5.428,31.547,6.749
	c20.168,2.851,31.253,4.421,33.254,4.708c34.202,5.009,67.541,5.193,100.017,0.549c10.699-1.53,23.575-3.76,38.629-6.69
	c15.656-3.047,27.865-4.8,36.628-5.258c15.198-0.785,27.564-0.863,37.099-0.235c36.373,2.433,59.412,3.885,69.117,4.355
	c31.874,1.543,53.612,1.733,65.213,0.569c14.596-1.465,27.087-2.766,37.472-3.904c13.21-1.439,23.556-2.204,31.037-2.296
	c27.859-0.333,60.975,3.61,80.594,5.513c34.882,3.427,68.267,1.216,100.154-6.631c0.654-0.157,0.837-0.536,0.549-1.138l-0.294-0.589
	c-0.092-0.196-0.242-0.281-0.451-0.255c-31.534,4.211-63.16,4.702-94.877,1.471c-18.442-1.883-38.538-3.878-60.289-5.984
	c-15.185-1.478-24.949-2.224-29.291-2.237c-52.513-0.196-84.008,0.177-94.484,1.118c-19.187,1.726-45.784,3.865-79.79,6.415
	c-0.789,0.056-1.474-0.538-1.53-1.327c-0.021-0.291,0.048-0.58,0.196-0.831c0.105-0.17,0.19-0.36,0.255-0.569
	c0.312-0.938,1.127-1.615,2.099-1.746c53.141-6.828,90.528-11.222,112.161-13.184c19.449-1.766,50.191-3.826,92.228-6.18
	c0.615-0.039,0.942-0.36,0.981-0.961l0.039-0.53c0-0.17-0.085-0.262-0.255-0.275c-37.079-3.126-66.58-5.559-88.501-7.298
	c-31.639-2.524-57.653-3.198-78.044-2.021c-4.238,0.235-15.767,0.765-34.588,1.589c-7.547,0.327-16.584,0.831-27.113,1.511
	c-14.858,0.955-23.915,1.341-27.172,1.157c-13.236-0.785-26.479-1.55-39.728-2.295c-3.178-0.183-8.855,0.275-17.029,1.373
	c-7.442,0.994-13.105,1.655-16.99,1.982c-42.664,3.583-84.799,4.316-126.404,2.197c-0.34-0.026-0.517,0.131-0.53,0.471l-0.039,0.589
	c-0.013,0.052,0.006,0.079,0.059,0.079c30.305,3.858,51.087,5.938,62.349,6.239c23.569,0.615,40.572,0.346,51.009-0.804
	c27.336-2.995,54.593-3.008,81.771-0.039c14.897,1.635,25.138,2.622,30.723,2.962c19.854,1.216,30.154,1.838,30.9,1.864
	c1.478,0.052,2.374,0.628,2.688,1.726c0.271,0.964-0.269,1.966-1.216,2.256c-3.688,1.112-7.9,1.792-12.635,2.04
	c-14.845,0.759-29.631,2.001-44.358,3.728c-7.181,0.837-20.096,2.871-38.747,6.101c-20.861,3.597-43.345,6.546-67.45,8.848
	c-23.242,2.21-44.764,2.871-64.566,1.981c-15.133-0.693-35.582-2.256-61.348-4.689c-5.591-0.53-14.126-2.001-21.326-2.315
	c-0.013,0.013-0.02,0.026-0.02,0.039c0,0.026,0.013,0.046,0.039,0.059C753.658,1345.685,753.743,1345.698,753.86,1345.724z
	 M667.557,1321.789l0.118-0.569c0.052-0.288-0.065-0.432-0.353-0.432c-20.861-0.445-41.697-1.092-62.506-1.942
	c-16.192-0.654-37.629-0.216-64.311,1.314c-9.744,0.549-16.532,1.112-20.364,1.687c-0.092,0-0.164,0.052-0.216,0.157l-0.275,0.471
	c-0.065,0.1-0.037,0.234,0.063,0.299c0.034,0.022,0.073,0.034,0.113,0.035c37.825,0.85,79.057,0.955,123.697,0.314
	c10.45-0.157,18.383-0.53,23.798-1.118C667.452,1321.991,667.531,1321.92,667.557,1321.789z M714.544,1337.464
	c31.312,0.569,60.014,0.314,88.991-2.158c4.839-0.418,4.833-0.634-0.02-0.647c-30.121-0.131-59.752-0.458-88.893-0.981
	c-29.141-0.523-58.765-1.256-88.873-2.197c-4.852-0.157-4.865,0.059-0.039,0.647C654.569,1335.64,683.252,1336.915,714.544,1337.464
	z"/>
</svg>
